<svg id="Layer_1" xmlns="http://www.w3.org/2000/svg" viewBox="0 0 500 500"><style>.st0,.st2,.st3,.st4{fill-rule:evenodd;clip-rule:evenodd;fill:#e86759}.st2,.st3,.st4{fill:#ca5041}.st3,.st4{fill:#1d3c50}.st4{fill:#f99b1c}</style><path class="st0" d="M298.1 176.9c19.2-31.5 64.7-34 94.8-34.7-11.3 22.8-23.6 56.3-21.3 85.6-20.7-17.6-44.1-34.7-73.5-50.9zM202.1 176.9c-19.1-31.5-64.6-34-94.8-34.7 11.3 22.8 23.6 56.3 21.3 85.6 20.7-17.6 44.1-34.7 73.5-50.9z"/><path d="M292.7 445.6c.7 1 1.7 1.6 2.9 1.6h52.5c31.5 0 119.7-273.8-92.4-281.3l-.2 21.4c0 2.9-2.4 5.3-5.3 5.3h-.4c-2.9 0-5.3-2.3-5.3-5.3l-.2-21.4c-212.1 7.5-123.6 281.3-92 281.3h52.5c1.2 0 2.2-.6 2.9-1.6 18.9-26.7 65.9-26.7 85 0z" fill-rule="evenodd" clip-rule="evenodd" fill="#f37369"/><path class="st2" d="M292.7 445.6c.7 1 1.7 1.6 2.9 1.6h52.5c10.7 0 28-31.6 37.9-73.5l-96.2-96.2-83.7 91.8 58 58c11.4 2.7 21.8 8.8 28.6 18.3z"/><path class="st3" d="M310.7 276c7.9 0 14.3-6.4 14.3-14.2 0-7.9-6.4-14.3-14.3-14.3-7.8 0-14.3 6.4-14.3 14.3 0 7.8 6.4 14.2 14.3 14.2z"/><path class="st0" d="M250.1 387.4c17.2 0 32.7-6.9 43.9-18.2 11.3-11.3 18.2-26.8 18.2-44s-7-32.7-18.2-43.9c-11.2-11.3-26.8-18.2-43.9-18.2-17.2 0-32.7 6.9-43.9 18.2-11.2 11.2-18.2 26.8-18.2 43.9 0 17.2 7 32.7 18.2 44 11.2 11.3 26.7 18.2 43.9 18.2z"/><path class="st2" d="M277.6 339.5c7.9 0 14.3-6.4 14.3-14.3 0-7.8-6.4-14.3-14.3-14.3s-14.3 6.4-14.3 14.3 6.4 14.4 14.3 14.3zM222.7 339.5c7.9 0 14.3-6.4 14.3-14.3 0-7.8-6.4-14.3-14.3-14.3s-14.3 6.4-14.3 14.3 6.4 14.4 14.3 14.3z"/><path class="st3" d="M189.6 276c7.9 0 14.3-6.4 14.3-14.2 0-7.9-6.4-14.3-14.3-14.3-7.8 0-14.3 6.4-14.3 14.3 0 7.8 6.4 14.2 14.3 14.2z"/><path class="st4" d="M250.1 52.8c-26.6 0-48.2 21.6-48.2 48.3 0 26.6 21.6 48.2 48.2 48.2s48.2-21.6 48.2-48.2c0-26.7-21.6-48.3-48.2-48.3z"/><path d="M250.1 142.3c11.4 0 21.7-4.6 29.1-12.1 7.5-7.4 12.1-17.8 12.1-29.1 0-11.4-4.6-21.8-12.1-29.2-7.5-7.5-17.8-12.1-29.1-12.1-11.4 0-21.7 4.6-29.2 12.1-7.5 7.4-12.1 17.8-12.1 29.2 0 11.4 4.6 21.7 12.1 29.1 7.5 7.5 17.8 12.1 29.2 12.1z" fill-rule="evenodd" clip-rule="evenodd" fill="#ffcb47"/><path class="st4" d="M253.3 80v15.9c4.8.2 8.8.6 11.8 1.4 3 .7 5.5 2.2 7.3 4.5 1.9 2.3 2.8 5.6 2.8 10.1 0 4.6-.7 8.1-2 10.7-1.4 2.6-3.5 4.4-6.3 5.6-2.8 1.1-6.7 1.8-11.6 2h-1.9v6.1H247v-6.1c-3.3 0-6.3-.3-8.9-.8-2.6-.5-4.9-1.4-6.8-2.7-1.9-1.3-3.4-3-4.5-5.3s-1.6-5.1-1.6-8.4l-.1-2.1h10c0 2.5.2 4.5.6 5.9.4 1.3 1.1 2.3 2 3 .9.6 1.9 1 3.1 1.2 1.2.1 3.2.3 6.2.5v-17.3c-3.9-.3-7-.6-9.3-1-2.3-.4-4.3-1.1-6.2-2.2-1.8-1.1-3.2-2.7-4.3-4.9-1-2.2-1.5-5.1-1.5-8.7 0-4.5.9-7.9 2.6-10.2 1.7-2.4 4.1-4 7.2-4.9 3-.8 6.8-1.2 11.4-1.2v-5.4h6.3v5.4c5.1.2 9 .7 11.8 1.5 2.8.8 4.9 2.4 6.4 4.8s2.2 6 2.2 10.8h-9.8c0-.3-.1-.7-.1-1.1 0-2.8-.6-4.7-1.8-5.7-1.2-1-3.3-1.5-6.2-1.5h-2.4v.1zm0 24.2v17.3h1.9c3.4 0 5.8-.6 7.4-1.8 1.6-1.2 2.4-3.4 2.4-6.7 0-2.6-.4-4.4-1.3-5.6-.9-1.2-2.1-2-3.5-2.3-1.5-.4-3.8-.6-6.9-.9zM247 80h-1.6c-2.2 0-4 .2-5.3.5-1.3.3-2.4 1-3.1 2-.8 1-1.2 2.7-1.2 4.9 0 3.2.9 5.3 2.8 6.5 1.9 1.1 4.6 1.8 8.4 1.8V80z"/><path class="st3" d="M292.7 445.6c.7 1 1.7 1.6 2.9 1.6h52.5c3.6 0 7.8-3.5 12.4-9.7h-75.3c2.7 2.3 5.3 5 7.5 8.1zm-152.9-8.1c4.5 6.2 8.8 9.7 12.3 9.7h52.5c1.2 0 2.2-.6 2.9-1.6 2.2-3.1 4.7-5.7 7.5-8.1h-75.2z"/></svg>