<svg id="Layer_1" xmlns="http://www.w3.org/2000/svg" xmlns:xlink="http://www.w3.org/1999/xlink" viewBox="0 0 500 500"><style>.st2{fill:#4b873e}.st3{fill:#004c26}.st5{opacity:.65;fill:#232b54}.st9{fill:#ffe300}.st11{fill:#dbab27}.st16{fill:#fff}</style><linearGradient id="SVGID_1_" gradientUnits="userSpaceOnUse" x1="451.258" y1="242.268" x2="423.674" y2="190.861" gradientTransform="rotate(-10.183 151.574 802.486)"><stop offset="0" stop-color="#005086"/><stop offset="1" stop-color="#0094d3"/></linearGradient><path d="M331.9 214.7s-29.9-36-21.1-64.9c16.8 1.5 44.6 13.1 44 24.7s-22.9 40.2-22.9 40.2z" fill="url(#SVGID_1_)"/><linearGradient id="SVGID_2_" gradientUnits="userSpaceOnUse" x1="-9.118" y1="159.582" x2="-36.702" y2="108.174" gradientTransform="scale(-1 1) rotate(-10.183 -2.016 2526.333)"><stop offset="0" stop-color="#005086"/><stop offset="1" stop-color="#0094d3"/></linearGradient><path d="M443 214.7s29.9-36 21.1-64.9c-16.8 1.5-44.6 13.1-44 24.7s22.9 40.2 22.9 40.2z" fill="url(#SVGID_2_)"/><path class="st2" d="M110.6 317.9c0 4.1-.2 8.4-.7 12.8-.5 4.4-1.2 8.8-2.3 13-1.1 4.2-2.5 8.3-4.2 12-1.8 3.8-3.9 7.1-6.4 10-2.5 2.9-5.5 5.1-8.9 6.8-3.4 1.7-7.3 2.5-11.7 2.5-.8 0-1.8-.1-2.9-.2-1.1-.1-2.3-.3-3.6-.5-1.2-.2-2.5-.6-3.7-1-1.2-.4-2.3-.9-3.3-1.5s-1.7-1.3-2.3-2.1c-.6-.8-.9-1.7-.9-2.7 0-.5.1-1.2.3-2.1.2-.9.6-1.7 1.1-2.5.5-.8 1.1-1.5 1.8-2.1.7-.6 1.6-.9 2.6-.9 1.2 0 2.3.2 3.4.6 1.1.4 2.2.8 3.4 1.3 1.2.5 2.4.9 3.7 1.3 1.3.4 2.7.6 4.1.6 1.7 0 3.3-.8 4.9-2.5 1.6-1.7 3.1-3.9 4.6-6.6 1.4-2.7 2.7-5.8 3.9-9.2 1.2-3.4 2.2-6.8 3-10.2-1.7 1.6-3.5 3-5.4 4.4-1.9 1.4-4.1 2.6-6.5 3.7-2.4 1-5.2 1.9-8.3 2.5-3.1.6-6.7.9-10.8.9-4.8 0-9.1-1-12.9-2.9-3.8-1.9-7.1-4.5-9.8-7.8-2.7-3.3-4.8-7.1-6.3-11.4-1.5-4.3-2.2-8.9-2.2-13.7 0-6.3.8-12.3 2.3-18 1.5-5.7 3.6-11 6.2-15.9 2.7-4.9 5.8-9.3 9.4-13.3 3.6-4 7.5-7.4 11.7-10.2 4.2-2.8 8.6-5 13.1-6.5 4.6-1.5 9.2-2.3 13.8-2.3 2.8 0 5.5.4 7.9 1.3 2.4.8 4.5 2.2 6.3 4 1.8 1.8 3.2 4.1 4.2 6.8 1 2.8 1.5 6.1 1.5 9.9 0 1.5-.2 3-.5 4.4-.4 1.5-.9 2.9-1.8 4.4-1.1 1.7-2.2 2.8-3.3 3.5-1.1.7-2.1 1-3 1-.7 0-1.4-.2-2.1-.6-.6-.4-1.2-.9-1.6-1.5-.5-.6-.8-1.4-1.1-2.1-.3-.8-.4-1.6-.4-2.5 0-.7.1-1.3.3-2 .2-.6.4-1.3.7-1.9.2-.6.5-1.3.7-2 .2-.7.3-1.4.3-2.1 0-3.5-.8-6.2-2.3-8-1.6-1.8-3.5-2.7-5.8-2.7-2.9 0-5.9.6-9.1 1.8-3.2 1.2-6.3 2.9-9.3 5.1-3 2.2-5.9 5-8.7 8.3-2.7 3.3-5.2 7-7.2 11.2-2.1 4.2-3.7 8.9-5 13.9-1.2 5.1-1.8 10.5-1.8 16.4 0 3.6.5 6.8 1.4 9.5.9 2.7 2.2 5 3.8 6.8 1.7 1.8 3.7 3.2 6.1 4 2.4.9 5.1 1.3 8.1 1.3 5.6 0 10.7-.8 15.4-2.3 4.7-1.5 9.1-3.6 13.3-6.3.3-1.1.5-2.1.7-3.1.2-1 .3-1.9.3-2.7 0-1.1-.1-1.9-.4-2.5-.3-.6-.7-1.1-1.1-1.4-.5-.3-1-.5-1.7-.6-.7-.1-1.4-.1-2.1-.1-1.3 0-2.5-.2-3.5-.5-1-.4-1.9-.8-2.6-1.4-.7-.6-1.2-1.2-1.6-2-.4-.7-.5-1.5-.5-2.2 0-.7.2-1.5.5-2.1.3-.7.9-1.3 1.6-1.8.7-.5 1.6-1 2.7-1.3 1.1-.3 2.3-.5 3.8-.5 3.4 0 6.3.4 8.5 1.1 2.2.7 3.9 1.8 5.2 3.1 1.3 1.4 2.1 3.1 2.6 5.1.1 2.2.4 4.5.4 7zM172.9 323c-.8 1.1-1.9 2.5-3.3 4s-2.9 3-4.6 4.4c-1.7 1.4-3.5 2.5-5.5 3.5-1.9 1-3.9 1.4-5.8 1.4-2.3 0-4.3-.8-5.8-2.3-1.6-1.5-2.9-3.7-4-6.6-.8 1-1.9 2-3.1 3-1.2 1-2.6 2-4.1 2.8-1.5.8-3 1.5-4.6 2-1.6.5-3.2.8-4.8.8-1.7 0-3.4-.3-5-1s-3-1.7-4.3-3c-1.2-1.3-2.2-2.9-3-4.7-.7-1.9-1.1-4-1.1-6.3 0-2.7.4-5.4 1.1-8.2.7-2.8 1.8-5.5 3.1-8.2 1.3-2.7 2.9-5.2 4.6-7.6 1.8-2.4 3.7-4.4 5.9-6.2 2.1-1.8 4.4-3.2 6.7-4.2 2.4-1 4.8-1.6 7.2-1.6.8 0 1.5.2 1.9.5.5.3.8.7 1.1 1.1l.9 1.2c.3.4.6.7 1.1.8.4.2.9.3 1.3.3.4.1.9.1 1.4.1h2.4c.5 0 1 .1 1.5.2s.9.3 1.2.7c.4.4.6.8.8 1.5.2.6.3 1.5.3 2.6 0 1.7-.2 3.6-.5 5.7-.4 2.1-.7 4.2-1.2 6.4-.4 2.2-.8 4.4-1.2 6.5-.4 2.2-.5 4.2-.5 6.2 0 1.7.2 3 .5 3.9.3.9.9 1.4 1.9 1.4.7 0 1.5-.2 2.3-.6.8-.4 1.6-.9 2.5-1.5.8-.6 1.7-1.3 2.5-2 .8-.8 1.6-1.5 2.4-2.4 1.7-1.9 3.5-4.1 5.3-6.5l2.5 11.9zm-45.4-4.2c0 .9.1 1.7.2 2.6.1.8.3 1.6.7 2.2.3.7.7 1.2 1.3 1.6.5.4 1.2.6 2 .6 1.3 0 2.5-.6 3.6-1.7s2-2.5 2.8-4.1c.8-1.6 1.4-3.2 1.9-4.9.5-1.7.8-3.1.9-4.2l3.2-15.6c-1.5 0-2.9.4-4.2 1.1-1.4.7-2.7 1.7-3.9 2.9-1.2 1.2-2.3 2.7-3.4 4.2-1 1.6-1.9 3.3-2.7 5-.7 1.8-1.3 3.5-1.7 5.3-.5 1.8-.7 3.5-.7 5z"/><path class="st2" d="M164.9 315.6c2-1.7 3.6-3.1 4.8-4.2 1.2-1.1 2.3-2.2 3.2-3.1.9-.9 1.7-1.9 2.4-2.8.7-1 1.6-2.1 2.6-3.4 1-1.3 2.2-2.9 3.6-4.8s3.3-4.3 5.5-7.1c.5-.6 1-1.3 1.5-1.9.6-.6 1.2-1.1 1.9-1.6s1.5-.9 2.3-1.2c.8-.3 1.8-.5 2.8-.5 1.7 0 3 .2 3.9.6.9.4 1.6.8 2 1.4.4.5.7 1.1.7 1.7.1.6.1 1.1.1 1.5 0 .8-.3 1.8-1 2.8-.7 1-1.4 2-2.2 3-.8 1-1.6 1.8-2.3 2.6-.7.8-1.1 1.4-1.2 1.8 0 1.1.1 2.1.2 3l.6 2.7c.3.9.5 1.8.8 2.8.3 1 .6 2.1.8 3.4.3 1.3.5 2.7.6 4.4.2 1.7.2 3.6.2 5.9 1.3-.8 2.6-1.6 4.1-2.3 1.5-.7 3-1.4 4.6-2.1 1.6-.7 3.2-1.6 4.9-2.5 1.7-.9 3.4-2 5.1-3.3l.1 11.9c-2.2 1.7-4.7 3.3-7.6 4.8-2.9 1.5-5.9 2.8-9.1 3.9-3.2 1.1-6.4 2-9.6 2.7-3.2.7-6.3 1-9.2 1-2.1 0-4-.2-5.8-.6-1.8-.4-3.4-1-4.8-1.8s-2.5-1.9-3.3-3.3c-.8-1.3-1.4-3-1.5-4.9-.5.1-1 .2-1.5.2s-.9.1-1.4.1c-.6 0-1.1 0-1.6-.1-.5 0-.9-.2-1.3-.4s-.6-.6-.8-1.1c-.2-.5-.3-1.2-.3-2.2 0-.8.2-1.6.6-2.4.4-.7.9-1.4 1.5-1.9.6-.6 1.1-1.1 1.7-1.5.7-.6 1.1-.9 1.4-1.2zm6.8 6.8c.4 0 .9.3 1.4.8l1.8 1.8c.7.6 1.5 1.2 2.3 1.8.9.5 1.9.8 3 .8 1.4 0 2.5-.2 3.4-.7.9-.5 1.6-1.1 2.1-1.8.5-.8.9-1.6 1.1-2.7s.3-2.1.3-3.2c0-1-.1-1.9-.2-2.9s-.3-1.9-.5-2.8c-.2-.9-.4-1.8-.6-2.5-.2-.8-.4-1.5-.6-2l-13.5 13.4z"/><path class="st2" d="M256.7 324.1c-3.4 2-6.4 3.7-9.1 5.2-2.7 1.5-5 2.7-7.1 3.7-2.1 1-3.9 1.7-5.5 2.2-1.6.5-3.1.7-4.4.7-2.7 0-5.1-.8-7.1-2.4-2.1-1.6-3.8-4-5.1-7-1.4-3.1-2.4-6.8-3.1-11.1-.7-4.4-1-9.3-1-14.7 0-2.1.1-4.4.3-6.8.2-2.4.4-4.8.7-7.2-1.1-.1-1.9-.3-2.5-.4-.6-.1-1.2-.2-1.9-.4-.7-.1-1.5-.3-2.5-.4-1-.1-2.5-.3-4.4-.5-.8-.1-1.5-.3-2-.6s-.8-.7-1-1.1c-.2-.4-.3-.8-.4-1.3 0-.4-.1-.8-.1-1.1 0-.7.3-1.2 1-1.6.7-.4 1.6-.6 2.7-.8 1.1-.2 2.3-.3 3.6-.3h3.7c1.2 0 2.2.1 3.2.1.9 0 1.6 0 1.9-.1 1-4.8 2.2-9.4 3.6-13.9 1.5-4.5 3.1-8.5 4.9-11.9 1.8-3.5 3.8-6.3 6-8.4 2.2-2.1 4.4-3.2 6.8-3.2 1.5 0 2.9.4 4.2 1.3 1.3.8 2.3 2 3.2 3.4.9 1.4 1.6 3.1 2 5 .5 1.9.7 3.9.7 5.9 0 1.7-.2 3.6-.7 5.5-.5 1.9-1.2 3.9-2 5.9-.8 2-1.8 4-3 6.1-1.2 2.1-2.4 4.1-3.6 6.1.3 0 .8.1 1.6.1.7 0 1.6 0 2.6.1 1 0 2 .1 3.2.1 1.1.1 2.2.1 3.3.1 1.1 0 2.1.1 3 .1.9 0 1.7.1 2.3.1.7 0 1.2.4 1.5 1.1.3.7.5 1.5.5 2.5 0 1.2-.4 2.2-1.1 3-.7.8-1.5 1.2-2.3 1.2h-20.4c-1 1.4-2.1 2.8-3.1 4.2-1 1.4-2 2.6-2.9 3.7-.1 2.2-.3 4.4-.4 6.5 0 .9-.1 1.9-.1 2.8 0 1-.1 1.9-.1 2.9s-.1 1.9-.1 2.8v2.4c0 1.9.2 3.5.5 4.8.4 1.3.9 2.4 1.5 3.2.7.8 1.5 1.4 2.5 1.8 1 .4 2.1.6 3.3.6.7 0 1.7-.2 2.8-.5 1.1-.4 2.3-.8 3.7-1.5 1.3-.6 2.7-1.4 4.2-2.2 1.5-.8 2.9-1.8 4.4-2.8 1.4-1 2.8-2.1 4.1-3.2 1.3-1.1 2.5-2.3 3.6-3.4v13.6zm-17-67.2c0-.4 0-.8-.1-1.3s-.2-.9-.3-1.4c-.2-.4-.5-.8-.8-1.1-.4-.3-.9-.4-1.6-.4-.9 0-1.8.8-2.8 2.4-.9 1.6-1.8 3.7-2.7 6.2-.9 2.5-1.7 5.3-2.4 8.4-.8 3-1.5 6-2.1 8.9.5.1 1.1.1 1.6.2s1.1.1 1.6.2c1.1-1.8 2.2-3.8 3.3-5.9 1.1-2.1 2.2-4.2 3.1-6.2.9-2 1.7-3.9 2.3-5.7.6-1.7.9-3.1.9-4.3z"/><path class="st2" d="M287.6 296.3c1 2.1 1.8 4.2 2.3 6.5.5 2.3.8 4.5.8 6.6 0 2.1-.2 4.2-.7 6.3-.5 2.1-1.1 4.2-2 6.2-.9 2-1.9 3.8-3.2 5.6-1.3 1.7-2.7 3.2-4.3 4.5-1.6 1.3-3.4 2.3-5.3 3-1.9.7-3.9 1.1-6.1 1.1-3.1 0-5.8-.7-8-2-2.2-1.4-4-3.1-5.4-5.3-1.4-2.2-2.5-4.7-3.1-7.4-.7-2.8-1-5.6-1-8.4 0-3.9.6-7.5 1.8-10.9 1.2-3.4 2.8-6.3 5-8.8 2.2-2.5 4.8-4.5 8-5.9 3.1-1.4 6.7-2.1 10.6-2.1 3.4 0 6.5.5 9.4 1.6 2.9 1 5.7 2.4 8.3 4.2 2.6 1.8 5 3.8 7.2 6 2.2 2.3 4.3 4.6 6.2 7l-1 7.5c-1-1.3-2.2-2.7-3.9-4.1-1.6-1.5-3.4-2.9-5.2-4.4-1.8-1.4-3.6-2.8-5.4-4-1.8-1.3-3.3-2.3-4.6-3.2l-.4.4zm-16.4 29.5c1.2 0 2.4-.6 3.5-1.8 1.1-1.2 2.1-2.8 3-4.6.8-1.9 1.5-3.9 2-6.2.5-2.2.8-4.4.8-6.4 0-1.6-.1-3.1-.4-4.5-.2-1.4-.6-2.6-1.1-3.6-.5-1-1.1-1.8-1.9-2.4-.8-.6-1.7-.9-2.8-.9-1.5 0-2.8.6-4.1 1.9-1.3 1.2-2.5 2.8-3.5 4.8-1 1.9-1.8 4.1-2.3 6.4-.6 2.3-.8 4.6-.8 6.7 0 1.5.1 2.9.4 4.2.3 1.3.7 2.5 1.3 3.4.6 1 1.4 1.8 2.4 2.3 1 .4 2.2.7 3.5.7z"/><path class="st3" d="M141.2 381.5h-19.3l-2.8 7.1h-13l19.4-43.2h12.3l19.3 43.2H144l-2.8-7.1zm-9.7-24l-5.6 13.8h11l-5.4-13.8zM188.3 388.6v-16.3h-15.5v16.3h-12.2v-43.2h12.2v16.4h15.5v-16.4h12.1v43.2h-12.1zM230.7 389.6c-14.1 0-24-8.2-24-22.6 0-14.2 9.9-22.6 24-22.6 14.2 0 24 8.3 24 22.6 0 14.4-9.8 22.6-24 22.6zm0-34.8c-7 0-11.8 5.1-11.8 12.2 0 7.2 4.9 12.2 11.8 12.2 7.2 0 11.8-5.1 11.8-12.2 0-7.4-4.6-12.2-11.8-12.2zM301 388.6h-13.4l-10.1-14h-4.3v14H261v-43.2h21.1c11 0 16.8 7.1 16.8 14.9 0 5.3-1.9 9.8-9.1 13l11.2 14.6v.7zm-27.8-33.5v10.4h9c3.2 0 4.6-2.4 4.6-5 0-2.7-1.5-5.4-4.7-5.4h-8.9zM346.4 388.6H333l-10.1-14h-4.3v14h-12.2v-43.2h21.1c11 0 16.8 7.1 16.8 14.9 0 5.3-1.9 9.8-9.1 13l11.2 14.6v.7zm-27.7-33.5v10.4h9c3.2 0 4.6-2.4 4.6-5 0-2.7-1.5-5.4-4.7-5.4h-8.9zM373.2 389.6c-14.1 0-24-8.2-24-22.6 0-14.2 9.9-22.6 24-22.6 14.2 0 24 8.3 24 22.6-.1 14.4-9.9 22.6-24 22.6zm0-34.8c-7 0-11.8 5.1-11.8 12.2 0 7.2 4.9 12.2 11.8 12.2 7.2 0 11.8-5.1 11.8-12.2-.1-7.4-4.7-12.2-11.8-12.2z"/><g><linearGradient id="SVGID_3_" gradientUnits="userSpaceOnUse" x1="374.857" y1="291.316" x2="327.322" y2="267.549"><stop offset="0" stop-color="#005086"/><stop offset="1" stop-color="#0094d3"/></linearGradient><path d="M334.1 339.1c-8.6 0-15.7-7-15.7-15.6-.1-15 6.5-37.7 25-56.3 12-12 33.3-26.4 66.8-26.4 8.7 0 15.7 7 15.7 15.7s-7 15.7-15.7 15.7c-18.2 0-33.2 5.8-44.5 17.1-11 11.1-15.9 25-15.9 34 0 8.7-7 15.8-15.7 15.8.1 0 0 0 0 0z" fill="url(#SVGID_3_)"/><path class="st5" d="M325.7 292.5s16.7 8.2 24.1 30.8c.8-7.1.8-12.9 5.2-19.2s-17.7-36-29.3-11.6z"/><linearGradient id="SVGID_4_" gradientUnits="userSpaceOnUse" x1="-358.389" y1="291.316" x2="-405.924" y2="267.549" gradientTransform="matrix(-1 0 0 1 39.93 0)"><stop offset="0" stop-color="#005086"/><stop offset="1" stop-color="#0094d3"/></linearGradient><path d="M439.1 339.1c8.6 0 15.7-7 15.7-15.6.1-15-6.5-37.7-25-56.3-12-12-33.3-26.4-66.8-26.4-8.7 0-15.7 7-15.7 15.7s7 15.7 15.7 15.7c18.2 0 33.2 5.8 44.5 17.1 11 11.1 15.9 25 15.9 34-.1 8.7 6.9 15.8 15.7 15.8-.1 0-.1 0 0 0z" fill="url(#SVGID_4_)"/><path class="st5" d="M447.4 292.5s-16.7 8.2-24.1 30.8c-.8-7.1-.8-12.9-5.2-19.2s17.8-36 29.3-11.6z"/></g><linearGradient id="SVGID_5_" gradientUnits="userSpaceOnUse" x1="310.839" y1="237.458" x2="465.879" y2="237.458"><stop offset="0" stop-color="#005086"/><stop offset="1" stop-color="#0094d3"/></linearGradient><circle cx="388.4" cy="237.5" r="77.5" fill="url(#SVGID_5_)"/><g><path d="M413.5 180.2h-44.9c-1.5 0-2.8-1.2-2.8-2.8 0-1.5 1.2-2.8 2.8-2.8h44.9c1.5 0 2.8 1.2 2.8 2.8 0 1.5-1.2 2.8-2.8 2.8z" opacity=".6" fill="#1d1d1b"/><circle class="st9" cx="371" cy="154.7" r="16.3"/><linearGradient id="SVGID_6_" gradientUnits="userSpaceOnUse" x1="373.341" y1="711.506" x2="396.261" y2="711.506" gradientTransform="rotate(121.359 534.256 429.263)"><stop offset="0" stop-color="#fff"/><stop offset="1" stop-color="#fff" stop-opacity="0"/></linearGradient><circle cx="371" cy="154.7" r="11.5" opacity=".8" fill="url(#SVGID_6_)"/><path class="st11" d="M371 172.8c-10 0-18.1-8.1-18.1-18.1 0-10 8.1-18.1 18.1-18.1 10 0 18.1 8.1 18.1 18.1 0 10-8.1 18.1-18.1 18.1zm0-32.5c-8 0-14.5 6.5-14.5 14.5s6.5 14.5 14.5 14.5 14.5-6.5 14.5-14.5-6.5-14.5-14.5-14.5z"/><g><defs><path id="SVGID_7_" d="M349.8 125.1h71.1v55h-71.1z"/></defs><clipPath id="SVGID_8_"><use xlink:href="#SVGID_7_" overflow="visible"/></clipPath><g clip-path="url(#SVGID_8_)"><circle class="st9" cx="391.3" cy="171.1" r="15.9"/><linearGradient id="SVGID_9_" gradientUnits="userSpaceOnUse" x1="376.996" y1="685.691" x2="399.402" y2="685.691" gradientTransform="rotate(121.359 534.256 429.263)"><stop offset="0" stop-color="#fff"/><stop offset="1" stop-color="#fff" stop-opacity="0"/></linearGradient><circle cx="391.3" cy="171.1" r="11.2" opacity=".8" fill="url(#SVGID_9_)"/><path class="st11" d="M391.3 188.7c-9.7 0-17.7-7.9-17.7-17.7s7.9-17.7 17.7-17.7c9.7 0 17.7 7.9 17.7 17.7s-8 17.7-17.7 17.7zm0-31.8c-7.8 0-14.2 6.4-14.2 14.2s6.4 14.2 14.2 14.2 14.2-6.4 14.2-14.2-6.4-14.2-14.2-14.2z"/></g></g><g><circle class="st9" cx="407.9" cy="129.2" r="17"/><linearGradient id="SVGID_10_" gradientUnits="userSpaceOnUse" x1="331.856" y1="693.243" x2="355.772" y2="693.243" gradientTransform="rotate(121.359 534.256 429.263)"><stop offset="0" stop-color="#fff"/><stop offset="1" stop-color="#fff" stop-opacity="0"/></linearGradient><circle cx="407.9" cy="129.2" r="12" opacity=".8" fill="url(#SVGID_10_)"/><path class="st11" d="M407.9 148.1c-10.4 0-18.9-8.5-18.9-18.9s8.5-18.9 18.9-18.9 18.9 8.5 18.9 18.9-8.5 18.9-18.9 18.9zm0-34c-8.3 0-15.1 6.8-15.1 15.1s6.8 15.1 15.1 15.1 15.1-6.8 15.1-15.1-6.7-15.1-15.1-15.1z"/></g></g><g opacity=".4"><image width="257" height="343" xlink:href="A4F8DFD7DFACCA46.png" transform="matrix(.24 0 0 .24 359.336 181.576)" overflow="visible" opacity=".75"/><path class="st16" d="M381.4 245.8c-6-.7-11.1-2.9-16.3-8.5l7.8-9c5 4.8 10.5 5.7 14.7 5.7 4.7 0 7.9-1.7 7.9-4.4 0-2.5-2.9-4.1-8.4-4.6-11-1-20.5-3.8-20.5-16.3 0-8.5 6.6-13.1 14.7-14.6v-6.5h12.1v6.4c4.9.7 9.1 2.4 13.1 5.5l-7 9c-3.4-2.6-7.4-3.4-11.8-3.4-3.4 0-6.8 1.1-6.8 3.7 0 3.4 3.4 3.9 8.3 4.4 10 1.1 20.4 5.1 20.4 16.7 0 9.4-7.3 14.4-16.2 15.9h.1v7h-12.1v-7z"/></g><g><image width="370" height="335" xlink:href="A4F8DFD7DFACCA4A.png" transform="matrix(.24 0 0 .24 342.192 235.712)" overflow="visible" opacity=".75"/><path class="st16" d="M386.6 244.3c-15.1 0-27.3 10.3-27.3 23s12.2 23 27.3 23c15.1 0 27.3-10.3 27.3-23s-12.2-23-27.3-23zm-6.4 30.3c0 2-1.6 3.5-3.5 3.5s-3.5-1.6-3.5-3.5V266c0-2 1.6-3.5 3.5-3.5s3.5 1.6 3.5 3.5v8.6zm19.8 0c0 2-1.6 3.5-3.5 3.5s-3.5-1.6-3.5-3.5V266c0-2 1.6-3.5 3.5-3.5s3.5 1.6 3.5 3.5v8.6z"/></g></svg>